# xmcd
#
# Track frame offsets:
#	150
#	12136
#	19657
#	27827
#	34026
#	42916
#	49488
#	60168
#	71298
#	77918
#	87360
#
# Disc length: 1325 seconds
#
# Revision: 1
# Processed by: cddbd v1.5.2PL0 Copyright (c) Steve Scherf et al.
# Submitted via: audiograbber 1.83.01
#
DISCID=7d052b0b
DTITLE=TheEgyptian Gay Lovers - Cazzo Duro Moto Club
DYEAR=2001
DGENRE=Rock
TTITLE0=ride
TTITLE1=fuck all night
TTITLE2=look into my eyes
TTITLE3=sheena
TTITLE4=some action-fast machine
TTITLE5=speed
TTITLE6=orgasmatron
TTITLE7=ride em cowboy
TTITLE8=you better not start that car
TTITLE9=45 degrees
TTITLE10=my darling
EXTD=
EXTT0=
EXTT1=
EXTT2=
EXTT3=
EXTT4=
EXTT5=
EXTT6=
EXTT7=
EXTT8=
EXTT9=
EXTT10=
PLAYORDER=
